<svg xmlns="http://www.w3.org/2000/svg" viewBox="0 0 1600 1100" width="1600" height="1100" role="img" aria-label="Placeholder: card dashboard with servicing modules and transactions">
<defs>
  <linearGradient id="cd-a" x1="0" y1="0" x2="1" y2="1">
    <stop offset="0" stop-color="#0E4E34"/><stop offset="1" stop-color="#0E4E34"/>
  </linearGradient>
  <linearGradient id="cd-card" x1="0" y1="0" x2="1" y2="1">
    <stop offset="0" stop-color="#0E4E34"/><stop offset="1" stop-color="#0E4E34"/>
  </linearGradient>
  <radialGradient id="cd-g1" cx="0.5" cy="0.5" r="0.5">
    <stop offset="0" stop-color="#0E4E34" stop-opacity="0.34"/><stop offset="1" stop-color="#0E4E34" stop-opacity="0"/>
  </radialGradient>
  <radialGradient id="cd-g2" cx="0.5" cy="0.5" r="0.5">
    <stop offset="0" stop-color="#0E4E34" stop-opacity="0.27"/><stop offset="1" stop-color="#0E4E34" stop-opacity="0"/>
  </radialGradient>
</defs>

<rect width="1600" height="1100" fill="#E6DCC9"/>
<circle cx="380" cy="200" r="460" fill="url(#cd-g1)"/>
<circle cx="1280" cy="920" r="460" fill="url(#cd-g2)"/>

<!-- browser chrome -->
<rect x="120" y="130" width="1360" height="840" rx="28" fill="#FFFFFF" stroke="#191409" stroke-opacity=".12" stroke-width="2"/>
<rect x="120" y="130" width="1360" height="64" rx="28" fill="#191409" fill-opacity=".04"/>
<g fill="#191409" fill-opacity=".22">
  <circle cx="168" cy="162" r="8"/><circle cx="196" cy="162" r="8"/><circle cx="224" cy="162" r="8"/>
</g>
<rect x="268" y="148" width="420" height="28" rx="14" fill="#191409" fill-opacity=".07"/>

<!-- hero card module -->
<rect x="172" y="240" width="580" height="280" rx="22" fill="#191409" fill-opacity=".05" stroke="#191409" stroke-opacity=".10"/>
<rect x="204" y="274" width="300" height="190" rx="18" fill="url(#cd-card)"/>
<g fill="#191409" fill-opacity=".55">
  <rect x="228" y="406" width="120" height="12" rx="6"/>
  <rect x="228" y="430" width="80" height="12" rx="6"/>
</g>
<circle cx="452" cy="316" r="20" fill="#191409" fill-opacity=".35"/>
<g fill="#191409" fill-opacity=".22">
  <rect x="536" y="286" width="180" height="14" rx="7"/>
  <rect x="536" y="316" width="130" height="14" rx="7"/>
</g>
<rect x="536" y="360" width="180" height="40" rx="20" fill="url(#cd-a)"/>
<rect x="536" y="416" width="180" height="40" rx="20" fill="#191409" fill-opacity=".08"/>

<!-- quick actions grid -->
<g>
  <rect x="784" y="240" width="644" height="280" rx="22" fill="#191409" fill-opacity=".05" stroke="#191409" stroke-opacity=".10"/>
  <g>
    <rect x="816" y="274" width="140" height="106" rx="16" fill="#191409" fill-opacity=".06"/>
    <rect x="976" y="274" width="140" height="106" rx="16" fill="#191409" fill-opacity=".06"/>
    <rect x="1136" y="274" width="140" height="106" rx="16" fill="#191409" fill-opacity=".06"/>
    <rect x="1296" y="274" width="100" height="106" rx="16" fill="#191409" fill-opacity=".06"/>
    <rect x="816" y="398" width="140" height="106" rx="16" fill="#191409" fill-opacity=".06"/>
    <rect x="976" y="398" width="140" height="106" rx="16" fill="#191409" fill-opacity=".06"/>
    <rect x="1136" y="398" width="140" height="106" rx="16" fill="#191409" fill-opacity=".06"/>
    <rect x="1296" y="398" width="100" height="106" rx="16" fill="#191409" fill-opacity=".06"/>
  </g>
  <g fill="url(#cd-a)">
    <circle cx="856" cy="312" r="16"/><circle cx="1016" cy="312" r="16" opacity=".8"/>
    <circle cx="1176" cy="312" r="16" opacity=".6"/><circle cx="1330" cy="312" r="16" opacity=".45"/>
    <circle cx="856" cy="436" r="16" opacity=".8"/><circle cx="1016" cy="436" r="16" opacity=".6"/>
    <circle cx="1176" cy="436" r="16" opacity=".45"/><circle cx="1330" cy="436" r="16" opacity=".3"/>
  </g>
  <g fill="#191409" fill-opacity=".2">
    <rect x="836" y="344" width="96" height="10" rx="5"/><rect x="996" y="344" width="96" height="10" rx="5"/>
    <rect x="1156" y="344" width="96" height="10" rx="5"/><rect x="1312" y="344" width="68" height="10" rx="5"/>
    <rect x="836" y="468" width="96" height="10" rx="5"/><rect x="996" y="468" width="96" height="10" rx="5"/>
    <rect x="1156" y="468" width="96" height="10" rx="5"/><rect x="1312" y="468" width="68" height="10" rx="5"/>
  </g>
</g>

<!-- transactions list -->
<rect x="172" y="552" width="836" height="380" rx="22" fill="#191409" fill-opacity=".05" stroke="#191409" stroke-opacity=".10"/>
<rect x="204" y="586" width="200" height="16" rx="8" fill="#191409" fill-opacity=".28"/>
<g>
  <g fill="#191409" fill-opacity=".05">
    <rect x="204" y="628" width="772" height="64" rx="12"/>
    <rect x="204" y="704" width="772" height="64" rx="12"/>
    <rect x="204" y="780" width="772" height="64" rx="12"/>
    <rect x="204" y="856" width="772" height="52" rx="12"/>
  </g>
  <g fill="url(#cd-a)">
    <circle cx="242" cy="660" r="14"/><circle cx="242" cy="736" r="14" opacity=".75"/>
    <circle cx="242" cy="812" r="14" opacity=".5"/><circle cx="242" cy="882" r="14" opacity=".3"/>
  </g>
  <g fill="#191409" fill-opacity=".22">
    <rect x="276" y="646" width="230" height="12" rx="6"/><rect x="276" y="668" width="150" height="12" rx="6"/>
    <rect x="276" y="722" width="230" height="12" rx="6"/><rect x="276" y="744" width="150" height="12" rx="6"/>
    <rect x="276" y="798" width="230" height="12" rx="6"/><rect x="276" y="820" width="150" height="12" rx="6"/>
    <rect x="276" y="874" width="230" height="12" rx="6"/>
  </g>
  <g fill="#191409" fill-opacity=".4">
    <rect x="876" y="654" width="80" height="14" rx="7"/><rect x="876" y="730" width="80" height="14" rx="7"/>
    <rect x="876" y="806" width="80" height="14" rx="7"/><rect x="876" y="876" width="80" height="14" rx="7"/>
  </g>
</g>

<!-- offers rail -->
<rect x="1040" y="552" width="388" height="380" rx="22" fill="url(#cd-a)" opacity=".14"/>
<rect x="1040" y="552" width="388" height="380" rx="22" fill="none" stroke="url(#cd-a)" stroke-width="2"/>
<rect x="1072" y="586" width="150" height="16" rx="8" fill="#191409" fill-opacity=".35"/>
<g fill="#191409" fill-opacity=".08">
  <rect x="1072" y="628" width="324" height="86" rx="14"/>
  <rect x="1072" y="726" width="324" height="86" rx="14"/>
</g>
<rect x="1072" y="836" width="324" height="48" rx="24" fill="url(#cd-a)"/>

<g font-family="'JetBrains Mono', ui-monospace, monospace" font-size="20" letter-spacing="3" fill="#7A6E55">
  <text x="120" y="1024">ADAPTIVE DASHBOARD</text>
  <text x="1178" y="1024">OFFERS RAIL</text>
</g>
</svg>
